<svg xmlns="http://www.w3.org/2000/svg" viewBox="0 0 64 64" width="64" height="64">
  <defs>
    <linearGradient id="bb" x1="0" y1="0" x2="1" y2="1">
      <stop offset="0%" stop-color="#ec008c"/>
      <stop offset="100%" stop-color="#fc6767"/>
    </linearGradient>
  </defs>
  <rect width="64" height="64" rx="16" fill="url(#bb)"/>
  <path d="M21 16h13.5c5.2 0 9 3.3 9 8.1 0 3.2-1.8 5.6-4.6 6.6v.2c3.6.7 6 3.4 6 7.3 0 5.4-4.2 8.8-10.2 8.8H21V16zm6.4 12.6h6.1c2.3 0 3.7-1.2 3.7-3.2s-1.4-3.2-3.8-3.2h-6v6.4zm0 12.8h6.6c2.6 0 4.1-1.3 4.1-3.5s-1.5-3.5-4.1-3.5h-6.6v7z" fill="#ffffff"/>
</svg>
